<svg width="100" height="100" viewBox="0 0 100 100" fill="none" xmlns="http://www.w3.org/2000/svg">
<rect width="100" height="100" rx="20" fill="#F4B941"/>
<path d="M36.0187 33.9948V63.9602C36.0303 63.9729 36.0352 63.9789 36.0408 63.9841C36.0465 63.9894 36.0529 63.9979 36.059 63.9979C45.9763 64.0029 55.8937 64.0073 65.811 64.0113C65.865 64.0113 65.919 64.0044 65.9994 63.9989C66.0034 63.9036 66.0105 63.8127 66.0105 63.7219C66.0111 61.2725 66.0112 58.8232 66.011 56.3738C66.011 52.5506 66.0098 48.7274 66.0075 44.9042C66.0024 44.8123 66.0175 44.7204 66.0518 44.6349C66.086 44.5494 66.1385 44.4725 66.2056 44.4094C68.0689 42.5545 69.9283 40.6957 71.7838 38.8329C71.8437 38.7729 71.9062 38.7156 71.9918 38.6338V70.0001H30.0505C30.0017 69.8321 29.9771 28.6456 30.0286 28.0137H61.3692C61.3022 28.0862 61.248 28.1493 61.1893 28.208C59.3199 30.079 57.4511 31.9506 55.583 33.8229C55.528 33.8818 55.4609 33.9279 55.3862 33.9582C55.3116 33.9884 55.2312 34.002 55.1508 33.9979C48.8815 33.9942 42.6123 33.9932 36.343 33.9948L36.0187 33.9948Z" fill="white"/>
<path d="M42.7583 57.2578C42.8796 56.7706 42.9907 56.3232 43.1023 55.876C43.6732 53.5873 44.2433 51.2985 44.8126 49.0095C44.852 48.8506 44.936 48.7063 45.0547 48.5936C49.9271 43.7218 54.7983 38.8488 59.6681 33.9744C61.7538 31.8873 63.8393 29.8001 65.9248 27.7128C65.969 27.6686 66.0151 27.6262 66.0383 27.604L72.3949 33.9695C72.3823 33.9832 72.337 34.0358 72.2881 34.0847C65.3316 41.045 58.3755 48.0058 51.4197 54.9668C51.3068 55.0849 51.1624 55.168 51.0037 55.2064C48.3128 55.8745 45.6227 56.5458 42.9334 57.2202C42.8895 57.2312 42.8449 57.2393 42.7583 57.2578Z" fill="white"/>
<path d="M74.5837 31.7764L68.2312 25.4209C68.2566 25.3913 68.2925 25.3439 68.3341 25.3022C68.9713 24.664 69.6122 24.0295 70.2461 23.3881C70.9328 22.6659 71.8422 22.1957 72.8282 22.053C73.465 21.9455 74.1177 21.9814 74.739 22.1579C75.3602 22.3345 75.9343 22.6473 76.4195 23.0737C77.6086 24.0969 78.1197 25.4183 77.9765 26.9746C77.8858 27.9854 77.4407 28.9314 76.7198 29.6453C76.0333 30.3451 75.336 31.0342 74.6431 31.7276C74.6243 31.745 74.6044 31.7614 74.5837 31.7764Z" fill="white"/>
</svg>
