<svg width="100" height="100" viewBox="0 0 100 100" fill="none" xmlns="http://www.w3.org/2000/svg">
<rect width="100" height="100" rx="20" fill="#4BADEF"/>
<path d="M78.0012 26.6057C77.986 26.726 77.9618 26.8459 77.957 26.9666C77.8653 29.6366 77.4751 32.2875 76.7939 34.8691C75.9672 37.8932 74.6367 40.7532 72.8592 43.3266C70.8716 46.2435 68.5162 48.8286 65.8955 51.1735C64.1526 52.7328 62.3554 54.2263 60.532 55.6882C60.4663 55.7409 60.4022 55.7956 60.3316 55.8541C60.2929 56.512 60.2526 57.1709 60.2158 57.83C60.125 59.46 60.0351 61.0901 59.9462 62.7203C59.8821 63.8981 59.8216 65.0762 59.7578 66.2541C59.7302 66.7629 59.6934 67.2713 59.6697 67.7803C59.6472 68.2615 59.4056 68.5922 58.9996 68.8171C58.0252 69.357 57.0507 69.8966 56.076 70.4359C52.8641 72.2102 49.6522 73.9848 46.4406 75.7596C46.0917 75.9527 45.731 76.0829 45.344 75.9384C45.1265 75.8568 44.926 75.7349 44.7527 75.5791C44.0938 74.9779 43.4585 74.3502 42.8012 73.7471C42.4393 73.415 42.3477 73.0479 42.5002 72.5775C43.2955 70.1239 44.0784 67.6661 44.8653 65.2097C45.0087 64.7618 45.1508 64.3134 45.3025 63.837C42.1762 60.8773 39.0443 57.9124 35.9068 54.9422C35.429 55.0773 34.9539 55.2102 34.4797 55.346C31.9292 56.0765 29.3789 56.8074 26.8287 57.5387C26.7479 57.5619 26.6661 57.5823 26.5864 57.609C26.4059 57.6785 26.2093 57.6942 26.0202 57.6541C25.8311 57.614 25.6573 57.5199 25.5197 57.383C24.8066 56.7155 24.0974 56.0437 23.3922 55.3676C23.311 55.2894 23.2381 55.2029 23.1749 55.1093C23.0702 54.9742 23.0099 54.8094 23.0023 54.6381C22.9947 54.4667 23.0402 54.2972 23.1324 54.1531C23.262 53.9346 23.396 53.7188 23.5293 53.5026C25.8809 49.692 28.2315 45.8808 30.5812 42.0689C30.709 41.8435 30.894 41.6565 31.1171 41.527C31.3403 41.3976 31.5935 41.3304 31.8508 41.3324C33.2802 41.274 34.7086 41.1946 36.1375 41.1251C37.4544 41.061 38.7714 41.0005 40.0883 40.9352C41.4237 40.869 42.7588 40.7953 44.0945 40.7345C44.1815 40.7321 44.2668 40.7104 44.3446 40.671C44.4223 40.6316 44.4905 40.5754 44.5444 40.5065C46.3322 38.4978 48.1539 36.52 50.0967 34.6627C52.6764 32.1966 55.4449 29.974 58.5208 28.1592C60.8417 26.7788 63.355 25.7586 65.9765 25.1326C67.3593 24.807 68.7588 24.5577 70.1685 24.386C71.664 24.2016 73.1642 24.0864 74.6692 24.0402C74.7702 24.0321 74.8708 24.0186 74.9705 24H77.1032C77.4959 24.1621 77.8156 24.4646 78.0012 24.8497V26.6057ZM63.9528 34.2065C63.9409 34.7578 64.0949 35.2998 64.3943 35.761C64.6784 36.2038 65.0614 36.5733 65.5125 36.8398C65.9636 37.1062 66.4703 37.2622 66.9919 37.2953C67.5135 37.3284 68.0356 37.2376 68.5162 37.0303C68.9968 36.823 69.4226 36.5048 69.7594 36.1014C70.1738 35.6271 70.4201 35.0271 70.4596 34.396C70.4991 33.7649 70.3295 33.1384 69.9776 32.6152C69.0416 31.2149 67.1581 30.709 65.6845 31.5033C64.6266 32.0735 63.9767 32.9457 63.9528 34.2065Z" fill="white"/>
</svg>
